<?xml version="1.0" encoding="utf-8"?>
<!-- Uploaded to: SVG Repo, www.svgrepo.com, Generator: SVG Repo Mixer Tools https://www.svgrepo.com/svg/316949/paint-can -->
<svg fill="#0f6cbf" width="800px" height="800px" viewBox="-3.29 0 181.698 181.698" xmlns="http://www.w3.org/2000/svg">
    <g id="paint_can" data-name="paint can" transform="translate(-1009.549 -992)">
        <rect id="Rectangle_6" data-name="Rectangle 6" width="96.748" height="8.001"
            transform="translate(1028.659 1085.837) rotate(-45.005)" />
        <path id="Path_32" data-name="Path 32"
            d="M1023.837,1092.945s-14.288,13.188-14.288,26.743a14.288,14.288,0,0,0,28.576,0C1038.125,1105.4,1023.837,1092.945,1023.837,1092.945Z" />
        <path id="Path_33" data-name="Path 33"
            d="M1180.943,1100.073l-68.375-68.163V996a4,4,0,0,0-8,0v36.5l-65.5,65.708,71.972,71.868a12.459,12.459,0,0,0,17.563,0l52.534-52.518a12.188,12.188,0,0,0,3.522-8.743A12.379,12.379,0,0,0,1180.943,1100.073ZM1175.5,1111.9l-52.519,52.519a4.365,4.365,0,0,1-6.172,0l-66.421-66.211,54.183-54.394v36.6a14.965,14.965,0,0,0-3.793,2.5,10.607,10.607,0,1,0,14.9,0,12.2,12.2,0,0,0-3.1-2.051v-37.637l62.719,62.506a4.451,4.451,0,0,1,1.382,3.087A4.236,4.236,0,0,1,1175.5,1111.9Z" />
    </g>
</svg>
